<svg width="52" height="50" viewBox="0 0 52 50" fill="none" xmlns="http://www.w3.org/2000/svg">
<path fill-rule="evenodd" clip-rule="evenodd" d="M42.1195 28.1949C42.1817 25.5361 42.855 15.1585 39.9053 13.9156C36.7974 10.8641 28.885 11.7172 24.9924 11.9505C20.3261 12.2248 11.8512 12.1622 11.3086 18.2133C11.2012 18.5175 11.0938 18.8217 10.9864 19.1259C10.2926 21.0912 10.3636 24.5676 10.9717 26.3101C10.9347 28.6451 10.5423 34.5758 12.5382 36.2505C13.5755 38.3039 16.2094 37.1622 17.9742 37.115C20.1113 37.0352 22.184 37.4435 24.3155 37.6055C28.2547 37.9041 33.7879 37.6055 39.0612 36.1278C41.7034 35.3874 42.035 30.2928 42.1195 28.1949Z" fill="#2DD7D4"/>
<path fill-rule="evenodd" clip-rule="evenodd" d="M33.3687 22.5281C33.4611 22.3592 33.5004 22.195 33.5396 22.0307C33.8655 21.4662 34.0802 20.8578 34.184 20.2054C33.9474 17.7048 34.0238 14.9845 34.0514 12.5431C34.0518 11.0154 34.8201 9.40226 33.8237 8.12254C32.8609 6.92029 31.3434 6.73143 29.9464 6.69285C29.8932 6.6975 29.8111 6.67788 29.7336 6.71146C29.0859 6.66092 28.4429 6.66357 27.7756 6.69515C26.7024 6.68184 25.6049 6.69745 24.5316 6.68414C23.0039 6.68379 21.3801 6.50424 19.856 6.85199C16.9674 7.53354 16.3211 9.94864 16.6462 12.4396C16.3639 14.4208 16.5118 16.418 17.0032 18.3583C16.9836 18.4405 16.964 18.5226 16.9733 18.629C16.9434 18.8996 16.9424 19.1945 16.9124 19.4652C16.8293 19.7404 16.7751 20.04 16.8273 20.3303C16.8366 20.4367 16.8413 20.4898 16.8749 20.5673C16.8739 20.8622 16.8486 21.1861 16.8476 21.481C16.812 21.9933 17.0181 22.5113 17.4231 22.8511L17.5677 22.9725C18.0285 23.9506 18.6639 24.7795 19.4495 25.488C20.293 26.2451 21.4736 25.9542 22.2157 25.246C22.9093 24.5957 23.81 24.1685 24.7675 24.0847C25.5066 24.2612 26.2653 24.3557 27.039 24.3148C27.4878 24.5435 27.9171 24.8544 28.2445 25.2278C29.0777 26.1734 30.4645 26.4005 31.3672 25.3834C32.1438 24.4578 32.7852 23.5172 33.3687 22.5281Z" fill="#D2EFE6"/>
<path d="M40.7792 32.7881C40.8065 31.8745 40.8151 30.748 40.8201 29.2735C40.8491 25.0095 41.0047 21.8869 40.9399 19.6144C40.9383 18.6764 40.8545 17.7189 40.6933 16.795C40.6075 16.4272 40.4974 16.0884 40.3631 15.7786C40.2288 15.4687 40.017 15.1924 39.7856 14.9982L39.6988 14.9254C39.4964 14.7555 39.2985 14.6388 39.0718 14.4979C38.5987 14.298 38.1302 14.1514 37.6179 14.1158C36.9656 14.0121 36.1536 13.9223 34.9936 13.8362C34.7762 13.8016 34.5634 13.8202 34.346 13.7856C34.3583 13.0073 34.3706 12.229 34.3829 11.4506C34.4138 10.8851 34.3916 10.3242 34.2629 9.77263C34.1828 9.1632 33.8656 8.60131 33.4513 8.15512L33.3356 8.05803C32.9018 7.69396 32.3754 7.49879 31.8052 7.41467C31.2882 7.32589 30.7806 7.34351 30.2729 7.36112C26.6901 7.46016 23.083 7.58813 19.5003 7.68716C18.9636 7.68051 18.4074 7.75597 17.8847 7.90891C17.3042 8.0133 16.7713 8.35475 16.3783 8.76436C16.2569 8.90898 16.1888 9.04895 16.0963 9.21785C15.9208 9.66204 15.8273 10.1258 15.816 10.6093C15.7635 11.8467 15.7399 13.1085 15.7405 14.3413C15.0247 14.4308 14.4685 14.5062 13.9701 14.6302C13.496 14.7253 13.0022 14.9025 12.5374 15.104C12.179 15.2962 11.8299 15.5947 11.534 15.8886L11.4612 15.9754C11.2913 16.1779 11.1503 16.4046 11.0383 16.6556C10.5612 17.6355 10.11 19.5243 10.222 23.5615C10.3183 26.5013 10.3476 29.2861 10.6009 31.5689C10.6893 32.5797 10.8599 33.61 11.1611 34.6021C11.3373 35.3908 11.7748 36.1029 12.3094 36.6994L12.6565 36.9907C12.9747 37.2576 13.3414 37.4668 13.7278 37.5938C14.4183 37.8282 15.3945 37.9572 17.0622 38.0257C18.7299 38.0942 21.0892 38.1022 24.5945 38.0368C27.7274 38.0039 30.9042 37.86 34.0997 37.9288C35.2308 37.9907 36.4011 37.8883 37.5285 37.602C38.3125 37.3726 39.0293 36.9883 39.5679 36.4051L39.7864 36.1448C40.0534 35.8266 40.2868 35.431 40.4138 35.0446C40.6435 34.3009 40.7912 33.5375 40.7792 32.7881ZM39.7663 17.8409C39.8677 19.3062 39.9159 20.776 39.8577 22.2552C39.8367 24.16 39.7709 26.4707 39.7469 29.2602C39.7306 31.2182 39.7405 32.5574 39.6358 33.5046C39.5909 33.9106 39.5171 34.2922 39.4144 34.6496L39.3901 34.6786C36.1814 31.3947 33.357 28.8276 31.1251 26.9055C31.9307 26.0042 32.7317 25.0496 33.5083 24.124C35.5714 21.6654 37.5719 19.105 39.4325 16.4764C39.634 16.9412 39.7291 17.4153 39.7663 17.8409ZM20.6225 26.0286C19.5765 25.1017 18.5791 24.1169 17.606 23.1031L17.5528 23.1078C17.577 23.0789 17.5481 23.0546 17.5435 23.0014C16.8127 18.9378 16.5561 14.7792 16.7829 10.6319C16.7792 10.2838 16.8334 9.98422 16.9651 9.65108C16.9847 9.56896 17.0575 9.48218 17.1061 9.42433C17.3777 9.15935 17.6829 8.97184 18.0506 8.88606C18.4958 8.76671 18.9746 8.72482 19.4291 8.71186C23.0119 8.61282 26.6189 8.48486 30.2017 8.38582C30.6562 8.37286 31.0864 8.38882 31.5456 8.42906C31.8983 8.4786 32.2315 8.61026 32.545 8.82405L32.6028 8.87259C32.8678 9.14423 33.0357 9.53157 33.0972 9.92821C33.168 10.4313 33.2099 10.91 33.1986 11.3934C33.1278 15.1787 33.1344 18.9304 33.1988 22.7306L33.2035 22.7838L32.6938 23.3912C31.9171 24.3168 31.1162 25.2714 30.3105 26.1727C29.6117 25.537 28.8689 25.0123 28.0534 24.5745C27.2378 24.1366 26.3587 23.8919 25.4208 23.8935C24.5361 23.8905 23.6168 24.1049 22.8225 24.5229C22.0861 24.9893 21.3254 25.4847 20.6225 26.0286ZM34.8739 14.9187C35.8986 14.9899 36.928 15.1142 37.9088 15.2964C38.1262 15.331 38.3483 15.4188 38.5704 15.5066C38.6525 15.5262 38.7104 15.5747 38.7972 15.6476C37.3642 17.6491 35.849 19.6309 34.305 21.5885L34.2841 14.9167C34.468 14.8738 34.6565 14.8841 34.8739 14.9187ZM14.9825 15.4797C15.1952 15.4611 15.4323 15.4136 15.6451 15.3949C15.7156 17.4257 15.9213 19.4715 16.2046 21.4836C14.8564 19.8594 13.6053 18.1196 12.5092 16.3125C12.6594 16.1922 12.7854 16.1008 12.9404 16.0336C13.6133 15.7603 14.2909 15.5402 14.9825 15.4797ZM11.4291 29.7007C11.3194 27.8342 11.2686 25.7213 11.2084 23.502C11.111 20.8572 11.3149 19.2044 11.5456 18.1658C11.6241 17.8373 11.7315 17.5331 11.8389 17.2288C14.0219 20.7365 16.6847 23.9074 19.7936 26.664C17.8203 28.3107 15.9917 30.0788 14.3413 32.0457C13.6617 32.8556 12.9625 33.7477 12.2436 34.7218C12.1765 34.5669 12.1093 34.412 12.0664 34.2281C11.728 32.8104 11.5109 31.2481 11.4291 29.7007ZM37.2226 36.5567C36.1969 36.7805 35.1619 36.8978 34.113 36.8556C30.8643 36.7914 27.6632 36.9642 24.4771 37.0018C19.8211 37.0875 17.1912 37.0496 15.6252 36.9185C15.0597 36.8876 14.5138 36.7746 13.9921 36.6326C13.7168 36.5495 13.4611 36.3842 13.2587 36.2143L12.9694 35.9716C12.9405 35.9473 12.8826 35.8988 12.878 35.8456C13.665 34.7315 14.437 33.7527 15.2137 32.8271C16.8641 30.8601 18.6881 29.0389 20.6903 27.4164C21.5145 26.7278 22.3966 26.0878 23.3458 25.6028C23.9852 25.252 24.7206 25.0804 25.47 25.0685C26.2194 25.0565 26.9343 25.262 27.6098 25.6317C28.3722 26.0743 29.086 26.5747 29.756 27.1861L30.3055 27.6472C32.5374 29.5693 35.4486 32.2092 38.7487 35.6191L38.8355 35.692C38.3893 36.1062 37.8517 36.3945 37.2226 36.5567Z" fill="black"/>
<path d="M20.7347 12.9127C23.5867 13.0384 26.4247 13.0045 29.302 12.8064C29.5969 12.8074 29.8153 12.5471 29.7874 12.2279C29.7884 11.933 29.5281 11.7145 29.2089 11.7425C26.3848 11.9359 23.5757 11.9941 20.7769 11.8637C20.482 11.8627 20.2346 12.0988 20.2047 12.3694C20.228 12.6354 20.464 12.8828 20.7347 12.9127Z" fill="black"/>
<path d="M29.4682 16.5441C29.7631 16.5451 30.0104 16.309 30.0114 16.0141C30.0124 15.7192 29.7764 15.4719 29.4815 15.4709C26.4456 15.388 23.4237 15.4648 20.4158 15.7012C20.1256 15.7534 19.9071 16.0137 19.9593 16.3039C19.9826 16.5699 20.2429 16.7884 20.5089 16.7651C23.4925 16.5577 26.4612 16.4856 29.4682 16.5441Z" fill="black"/>
<path d="M29.3817 19.2319C26.5333 19.4543 23.6757 19.5703 20.7845 19.6089C20.4896 19.6079 20.2422 19.8439 20.2412 20.1388C20.2402 20.4337 20.4763 20.6811 20.7712 20.6821C23.6624 20.6436 26.5443 20.4986 29.4216 20.3005C29.7407 20.2726 29.9592 20.0123 29.907 19.722C29.9612 19.4224 29.6719 19.1797 29.3817 19.2319Z" fill="black"/>
</svg>