<svg width="51" height="50" viewBox="0 0 51 50" fill="none" xmlns="http://www.w3.org/2000/svg">

<path d="M13.1661 41.2369C13.1267 41.205 13.1218 41.14 13.1246 40.6786C13.1263 40.3913 13.1297 40.0927 13.132 40.0148C13.1344 39.937 13.1343 39.8313 13.1319 39.7799C13.1255 39.6389 13.1186 39.145 13.1226 39.1104C13.1246 39.0936 13.1135 38.7978 13.098 38.4529C12.9871 35.984 12.7384 37.0208 12.258 34.8216C12.1672 34.4063 11.7983 32.9901 11.6733 32.5774C11.6084 32.3629 11.5461 32.1572 11.5351 32.1204C11.5239 32.0836 11.469 31.9156 11.4129 31.7472C11.3569 31.5789 11.2964 31.3967 11.2784 31.3425C11.0384 30.6175 10.6545 29.651 10.1523 28.5069C9.34305 26.6631 9.05545 25.9234 8.79553 25.0173C8.18091 22.8744 8.15069 20.9994 8.6968 18.8918C8.74894 18.6906 8.75719 18.662 8.80742 18.5061C8.97064 17.9999 9.02836 17.8312 9.10182 17.6461C9.20837 17.3773 9.2312 17.3189 9.24529 17.2794C9.25156 17.2615 9.26737 17.2251 9.28034 17.1985C9.29331 17.1718 9.31776 17.1154 9.33454 17.0729C9.35143 17.0305 9.37301 16.9895 9.38257 16.982C9.39214 16.9744 9.40536 16.9391 9.41186 16.9035C9.41836 16.868 9.43687 16.8285 9.45293 16.8158C9.46899 16.8031 9.49712 16.7559 9.51541 16.7111C9.5337 16.6662 9.56363 16.5928 9.58192 16.5479C9.60021 16.5031 9.62593 16.458 9.63898 16.4476C9.65203 16.4373 9.67614 16.3934 9.69262 16.3499C9.70911 16.3065 9.73129 16.2641 9.74193 16.2556C9.75258 16.2472 9.77476 16.2048 9.79125 16.1614C9.80773 16.1179 9.83677 16.0701 9.85577 16.0551C9.87478 16.04 9.90382 15.9922 9.9203 15.9487C9.93679 15.9053 9.9624 15.8602 9.97719 15.8485C9.99205 15.8367 10.0177 15.7916 10.0341 15.7481C10.0506 15.7047 10.0833 15.654 10.1068 15.6354C10.1304 15.6168 10.1643 15.565 10.1824 15.5203C10.2005 15.4756 10.233 15.425 10.2547 15.4078C10.2764 15.3907 10.3048 15.35 10.3178 15.3173C10.3307 15.2847 10.3675 15.2298 10.3995 15.1952C10.4315 15.1606 10.4781 15.0922 10.5032 15.0432C10.5283 14.9942 10.5711 14.9365 10.5982 14.915C10.6634 14.8635 10.8038 14.642 10.8394 14.5345C10.8455 14.5163 10.8866 14.4203 10.9308 14.3211C10.975 14.222 11.025 14.1063 11.042 14.0641C11.0588 14.0217 11.0859 13.9766 11.1021 13.9639C11.1183 13.9511 11.131 13.9236 11.1305 13.9028C11.1298 13.8819 11.144 13.8453 11.162 13.8213C11.1799 13.7974 11.2108 13.7419 11.2305 13.698C11.3259 13.4858 11.3525 13.4343 11.3757 13.416C11.3894 13.4051 11.4142 13.3606 11.4307 13.3172C11.4472 13.2737 11.4744 13.2272 11.4912 13.2138C11.5081 13.2004 11.5304 13.1579 11.5409 13.1195C11.5513 13.0809 11.5753 13.0373 11.5941 13.0223C11.613 13.0073 11.6419 12.9594 11.6583 12.916C11.6748 12.8726 11.7073 12.822 11.7305 12.8037C11.7537 12.7853 11.7862 12.7347 11.8026 12.6913C11.8191 12.6479 11.8474 12.6006 11.8654 12.5864C11.8835 12.5721 11.9163 12.5216 11.9382 12.4742C11.9601 12.4268 11.997 12.3728 12.0201 12.3542C12.0432 12.3355 12.0781 12.288 12.0976 12.2486C12.1171 12.2092 12.1681 12.1372 12.2108 12.0885C12.2536 12.0397 12.2908 11.9856 12.2935 11.9681C12.2962 11.9506 12.3352 11.9007 12.3801 11.8572C12.425 11.8138 12.4918 11.7317 12.5287 11.675C12.5654 11.6181 12.6352 11.5331 12.6837 11.486C12.7322 11.4387 12.7789 11.3818 12.7874 11.3593C12.7959 11.3368 12.8609 11.261 12.9318 11.1909C13.0027 11.1208 13.105 11.0091 13.1592 10.9426C13.2134 10.8762 13.3102 10.78 13.3742 10.729C13.5682 10.5743 13.7505 10.3852 13.7564 10.3326C13.761 10.2915 13.8267 10.2336 14.2372 9.90886C14.6193 9.60665 14.7231 9.53212 14.7654 9.52988C14.8374 9.52593 14.9129 9.48257 15.2287 9.2633C15.3782 9.15943 15.5472 9.05644 15.6042 9.03437C15.6612 9.01226 15.743 8.96641 15.786 8.93244C15.8289 8.89847 15.9069 8.85578 15.9594 8.83759C16.0119 8.81939 16.1176 8.76631 16.1941 8.71957C16.2708 8.67286 16.3482 8.63572 16.3662 8.63715C16.3843 8.63857 16.4488 8.61208 16.5095 8.5782C16.5702 8.54439 16.6551 8.5087 16.6979 8.49881C16.7408 8.48899 16.7985 8.46333 16.8262 8.44174C16.8538 8.4202 16.9183 8.39406 16.9695 8.38367C17.0207 8.37324 17.0808 8.35057 17.1031 8.33327C17.1254 8.31596 17.1855 8.29329 17.2366 8.28291C17.2878 8.27247 17.3479 8.24987 17.3703 8.2327C17.3927 8.21547 17.4501 8.19448 17.4979 8.18606C17.5458 8.1776 17.5989 8.15998 17.616 8.14694C17.6332 8.13391 17.6849 8.11831 17.7309 8.11227C17.777 8.10623 17.826 8.09236 17.8397 8.08147C17.8535 8.07057 17.9042 8.05357 17.9524 8.04371C18.0355 8.02679 18.0698 8.01735 18.2601 7.95949C18.304 7.94612 18.3671 7.93215 18.4004 7.92848C18.4336 7.92475 18.4721 7.91274 18.4859 7.90185C18.4997 7.8909 18.5477 7.87635 18.5927 7.86934C18.6375 7.86238 18.7221 7.84673 18.7805 7.83455C18.8391 7.8224 18.9237 7.80668 18.9686 7.79979C19.0134 7.79283 19.0626 7.77748 19.0778 7.76574C19.0931 7.75401 19.1346 7.74581 19.17 7.74754C19.2055 7.74923 19.2425 7.74448 19.2523 7.73702C19.2681 7.72514 19.4397 7.6903 19.5371 7.67922C19.5712 7.67535 19.7407 7.64566 19.8418 7.62591C19.8713 7.62012 19.9112 7.61413 19.9304 7.61262C19.9497 7.6111 19.9893 7.60484 20.0186 7.59882C20.0478 7.5928 20.1537 7.57869 20.2539 7.56752C20.354 7.55629 20.4476 7.54428 20.4618 7.54065C20.521 7.52576 20.5449 7.52234 20.6343 7.51599C20.6859 7.51234 20.7629 7.50402 20.8054 7.49746C20.8479 7.4909 20.9313 7.48355 20.9907 7.48119C21.1217 7.47599 21.2185 7.46662 21.2898 7.4522C21.3192 7.44632 21.3614 7.44339 21.3838 7.44582C21.4062 7.44814 21.4762 7.44248 21.5395 7.43317C21.6029 7.42386 21.6715 7.42075 21.692 7.42623C21.7124 7.4317 21.7369 7.43014 21.7463 7.42267C21.7559 7.41515 21.8273 7.4084 21.9051 7.40759C21.983 7.40682 22.0498 7.40369 22.0537 7.40064C22.0575 7.3976 22.1231 7.39267 22.1995 7.38961C22.2759 7.38655 22.3553 7.38291 22.3758 7.38134C22.3965 7.37984 22.4615 7.37749 22.5204 7.3762C22.5793 7.37491 22.6447 7.37292 22.6657 7.37178C22.6867 7.37064 22.7521 7.3687 22.8109 7.36745C22.8698 7.36621 22.9351 7.36427 22.9561 7.36313C22.9771 7.36199 23.0425 7.36004 23.1013 7.3588C23.1602 7.35749 23.2256 7.35545 23.2467 7.35422C23.2679 7.35305 23.3881 7.35148 23.5139 7.35073C23.6397 7.34999 23.7676 7.34834 23.798 7.34702C23.8591 7.34432 24.1635 7.34254 24.4429 7.34324C24.542 7.3436 24.6702 7.34359 24.728 7.34349C24.7857 7.34338 24.9114 7.34332 25.0073 7.34359C25.1032 7.34374 25.1987 7.34287 25.2194 7.34174C25.2401 7.34049 25.3073 7.3412 25.3685 7.34325C25.4299 7.34537 25.6649 7.34815 25.8908 7.34953C26.1166 7.3509 26.3641 7.35376 26.4407 7.3558C26.5173 7.35786 26.6986 7.36146 26.8435 7.36386C27.157 7.36884 27.2147 7.37132 27.9838 7.41184C30.4838 7.54369 32.4052 8.02131 33.8289 8.8648C34.2494 9.11386 34.7327 9.46131 34.9434 9.66584C35.0044 9.72503 34.9819 9.71662 34.7771 9.60394C33.3699 8.8293 31.86 8.51586 29.4056 8.48894C28.9722 8.48416 28.4006 8.49291 27.3619 8.52037C25.7715 8.5623 25.2463 8.55397 23.7526 8.4628C21.8756 8.34829 20.5725 8.30858 19.548 8.33486C18.6006 8.35914 17.9768 8.48719 17.4897 8.75729C17.2513 8.88951 16.8554 9.21842 16.7209 9.39588C16.6719 9.46058 16.5184 9.61069 16.3577 9.75095C16.04 10.0283 15.8316 10.2503 15.3935 10.7773C14.7192 11.5887 14.1984 12.2781 13.5746 13.185C12.309 15.0249 11.5309 16.3855 10.6488 18.3005C10.4021 18.8364 9.78044 20.331 9.59207 20.8417C9.51729 21.0444 9.40169 21.3282 9.33521 21.4722C9.15173 21.8698 9.07031 22.0866 9.027 22.2933C8.93317 22.7409 8.97195 23.207 9.15746 23.8606C9.29045 24.3291 9.44909 24.7153 9.95839 25.8105C10.1624 26.2494 10.4012 26.7631 10.4888 26.952C10.911 27.8619 11.327 28.9589 11.6946 30.1325C12.278 31.9945 12.7289 34.1383 13.0226 36.4467C13.3047 38.6623 13.3702 37.3347 13.2558 39.3919C13.2023 40.355 13.1839 40.9357 13.2009 41.128C13.2139 41.2749 13.2138 41.2754 13.1661 41.2369Z" fill="#EEE2CF" stroke="#EEE2CF" stroke-linecap="round" stroke-linejoin="round"/>
<path d="M19.7386 8.59642C15.5348 8.8437 16.2768 9.66796 13.804 12.965C12.6225 14.9982 10.2596 19.5755 10.2596 21.6197C14.9578 35.1375 11.7434 38.4345 12.4028 40.2479C13.0622 42.0613 21.7993 41.5667 25.3436 41.4843C28.8879 41.4019 38.2844 42.3086 38.2844 40.2479C42.9827 25.164 40.0154 11.1516 37.0481 9.58553C34.0807 8.01944 23.9424 8.34914 19.7386 8.59642Z" fill="#EEE2CF"/>
<path d="M31.1915 36.061C31.0236 36.1335 30.8424 36.1613 30.4152 36.1802C30.272 36.1865 30.0628 36.1967 29.9504 36.2029C28.3803 36.2896 27.9024 36.3111 27.8903 36.2958C27.8859 36.2902 27.895 36.198 27.9105 36.091C27.9458 35.846 28.1725 33.7702 28.2198 33.2585C28.3474 31.8761 28.4354 30.4982 28.4822 29.151C28.4891 28.9505 28.4993 28.6632 28.5049 28.5126C28.5105 28.3619 28.5178 28.0569 28.5213 27.8348C28.5247 27.6128 28.5308 27.224 28.5349 26.971C28.5389 26.718 28.5411 26.3822 28.5398 26.2248C28.5385 26.0674 28.5373 25.7323 28.5372 25.4801C28.5364 23.8167 28.4772 22.1686 28.36 20.5437C28.2829 19.4746 28.2714 19.124 28.2866 18.3039C28.3066 17.2198 28.3928 16.332 28.5146 15.9542C28.6751 15.457 28.9936 15.2474 29.7733 15.126C31.0959 14.92 31.6925 14.8509 31.9002 14.8796C32.2036 14.9215 32.2783 15.0177 32.3805 15.4975C32.468 15.9092 32.4768 16.1325 32.4403 17.0241C32.3952 18.1262 32.3886 18.4594 32.391 19.4889C32.3923 20.0582 32.405 21.8633 32.4108 22.3316C32.4128 22.4825 32.4142 22.8054 32.414 23.0493C32.4139 23.2932 32.4158 23.8002 32.4184 24.176C32.4289 25.7293 32.4247 26.8403 32.4039 27.9765C32.3872 28.8921 32.378 29.3624 32.3743 29.4858C32.3122 31.5839 32.1566 33.5392 31.9514 34.8039C31.8749 35.275 31.8221 35.4339 31.6666 35.6611C31.5607 35.8159 31.3517 35.9917 31.1915 36.061Z" fill="#FB4700" stroke="#FB4700" stroke-linecap="round" stroke-linejoin="round"/>
<path d="M26.3523 36.3458C26.1137 36.3681 25.7353 36.4071 25.5113 36.4326C25.0932 36.48 23.8186 36.6158 23.6315 36.6328C23.433 36.6508 23.4455 36.6648 23.4651 36.4462C23.5592 35.3983 23.6564 33.9453 23.71 32.782C23.7541 31.8249 23.7855 30.7061 23.7907 29.9068C23.7922 29.69 23.7953 29.2072 23.7977 28.8341C23.8055 27.603 23.7846 26.635 23.6802 23.3771C23.6222 21.5691 23.6243 21.5005 23.745 21.2466C23.8293 21.0695 23.8896 20.9955 24.0584 20.8619C24.2531 20.7079 24.362 20.6631 24.7276 20.5865C25.0319 20.5226 25.2757 20.5008 25.703 20.4993C26.2388 20.4974 26.6897 20.5278 27.1059 20.594L27.2856 20.6226L27.3093 21.0426C27.3323 21.4512 27.4181 23.423 27.4325 23.8749C27.4418 24.167 27.4611 25.1636 27.464 25.5025C27.4704 26.2379 27.471 26.3905 27.4693 26.8356C27.4664 27.6207 27.4361 28.6617 27.3898 29.5719C27.2835 31.6622 27.1863 32.9456 27.0034 34.6749C26.9498 35.1822 26.808 36.2925 26.7959 36.2996C26.7906 36.3028 26.5909 36.3236 26.3523 36.3458Z" fill="#FFB800" stroke="#FFB800" stroke-linecap="round" stroke-linejoin="round"/>
<path d="M22.1289 36.7349C21.407 36.7653 20.3134 36.7556 19.9121 36.715C19.4697 36.6703 19.1911 36.44 19.0972 36.0413C19.0411 35.8029 19.0401 35.6568 19.0886 34.6671C19.1243 33.9392 19.148 33.2542 19.1485 32.9457C19.1487 32.8109 19.1527 32.4981 19.1573 32.2507C19.1691 31.6299 19.1743 30.7319 19.1685 30.3282C19.1659 30.1429 19.1634 29.8756 19.1629 29.7342C19.1621 29.4582 19.1502 29.0747 19.1312 28.7149C19.112 28.3495 19.1154 28.0607 19.141 27.8861C19.1803 27.6188 19.2422 27.4953 19.3996 27.3699C19.5569 27.2445 19.7963 27.2066 20.2538 27.2346C20.3715 27.2418 20.528 27.2499 20.6017 27.2525C20.6754 27.2551 20.8748 27.2625 21.0447 27.2687C21.7271 27.2941 22.1899 27.2946 22.5526 27.2703C22.6563 27.2634 22.7177 27.2681 22.718 27.2828C22.7259 27.6318 22.7272 28.4966 22.7212 29.3207C22.7204 29.4311 22.7191 29.6215 22.7185 29.7439C22.717 30.0202 22.6838 31.4867 22.6719 31.7995C22.6463 32.4742 22.6138 33.1536 22.5735 33.8539C22.5179 34.8221 22.3717 36.6993 22.3508 36.7147C22.3423 36.721 22.2424 36.7301 22.1289 36.7349Z" fill="#7D7FFF" stroke="#7D7FFF" stroke-linecap="round" stroke-linejoin="round"/>
<path d="M31.7309 36.9961C31.4178 37.164 31.0855 37.2213 30.2854 37.2453C29.9783 37.2545 29.7049 37.2714 28.7588 37.3396C28.2001 37.3799 27.5945 37.3992 27.1843 37.3898C26.5606 37.3755 26.2813 37.3941 25.6207 37.4939C24.3876 37.68 23.6426 37.7389 21.6416 37.8081C20.9418 37.8323 20.6959 37.8332 20.3217 37.8129C19.6661 37.7772 19.3161 37.7151 19.0159 37.581C18.7883 37.4794 18.674 37.3958 18.5192 37.2178C18.2829 36.9458 18.1222 36.5974 18.0421 36.1827C17.9667 35.7926 17.9645 35.6538 18.0179 34.6024C18.0786 33.406 18.1152 31.4299 18.0966 30.3421C18.0905 29.9806 18.0639 29.2669 18.0408 28.8463C18.0025 28.1471 18.0181 27.913 18.1314 27.4939C18.3934 26.5245 19.0198 26.1149 20.1618 26.1659C20.3262 26.1733 21.3316 26.1967 22.1174 26.2115C22.2848 26.2146 22.4854 26.2185 22.5633 26.2199L22.7048 26.2227L22.695 26.06C22.6897 25.9706 22.6764 25.5743 22.6655 25.1793C22.6546 24.7844 22.6414 24.315 22.6362 24.1364C22.631 23.9577 22.6239 23.6991 22.6205 23.5616C22.617 23.4242 22.6053 23.0845 22.5945 22.8066C22.5354 21.287 22.5971 20.9198 22.9989 20.4027C23.1193 20.2477 23.4559 19.958 23.6424 19.849C23.9324 19.6795 24.4512 19.5349 25.0105 19.4678C25.6537 19.3906 26.0933 19.3905 26.8687 19.4677C27.0664 19.4873 27.2281 19.4993 27.228 19.4941C27.2279 19.489 27.222 19.3449 27.2148 19.1739C27.164 17.9717 27.2546 16.6812 27.4488 15.836C27.5898 15.2224 27.7781 14.8952 28.168 14.5871C28.5936 14.2506 29.0004 14.1407 30.7767 13.8819C31.3896 13.7926 31.6018 13.7677 31.752 13.7673C31.9192 13.7669 32.1861 13.801 32.3071 13.8383C32.8701 14.0118 33.2663 14.5207 33.4382 15.2908C33.5204 15.6587 33.5347 16.0298 33.4985 16.8456C33.4658 17.5786 33.4604 18.2142 33.4697 20.2388C33.4725 20.8435 33.4745 21.5147 33.4743 21.7302C33.4734 22.4618 33.4763 23.6706 33.4793 23.8574C33.481 23.9596 33.4837 24.3514 33.4853 24.7278C33.487 25.1043 33.4899 25.6505 33.4917 25.9416C33.4988 27.0962 33.4606 29.2532 33.4143 30.3015C33.3405 31.9751 33.2548 33.0454 33.0967 34.2651C32.984 35.1349 32.9358 35.3942 32.8292 35.7044C32.725 36.0079 32.5904 36.2395 32.3765 36.4836C32.2556 36.6216 31.8939 36.9087 31.7309 36.9961ZM31.6665 35.6611C31.8221 35.4339 31.8748 35.275 31.9514 34.8039C32.1566 33.5392 32.3122 31.5839 32.3743 29.4858C32.378 29.3624 32.3872 28.8921 32.4039 27.9765C32.4246 26.8403 32.4288 25.7293 32.4183 24.176C32.4158 23.8002 32.4138 23.2932 32.414 23.0493C32.4142 22.8054 32.4127 22.4825 32.4108 22.3316C32.4049 21.8633 32.3923 20.0582 32.391 19.4889C32.3885 18.4594 32.3952 18.1262 32.4403 17.0241C32.4768 16.1325 32.468 15.9092 32.3805 15.4975C32.2783 15.0177 32.2036 14.9215 31.9002 14.8796C31.6924 14.8509 31.0958 14.92 29.7733 15.126C28.9935 15.2474 28.675 15.457 28.5146 15.9542C28.3928 16.332 28.3065 17.2198 28.2865 18.3039C28.2714 19.124 28.2828 19.4746 28.36 20.5437C28.4772 22.1686 28.5364 23.8167 28.5372 25.4801C28.5373 25.7323 28.5385 26.0674 28.5398 26.2248C28.5411 26.3822 28.5388 26.718 28.5348 26.971C28.5308 27.224 28.5247 27.6128 28.5213 27.8348C28.5178 28.0569 28.5104 28.3619 28.5049 28.5126C28.4993 28.6632 28.489 28.9505 28.4821 29.151C28.4354 30.4982 28.3473 31.8761 28.2197 33.2585C28.1725 33.7702 27.9458 35.846 27.9104 36.091C27.895 36.1981 27.8859 36.2902 27.8903 36.2958C27.9024 36.3111 28.3803 36.2896 29.9503 36.2029C30.0628 36.1967 30.272 36.1865 30.4152 36.1802C31.03 36.153 31.2 36.1052 31.4532 35.8881C31.5472 35.8075 31.6177 35.7324 31.6665 35.6611ZM26.8847 35.6718C27.0217 34.5944 27.1552 33.2483 27.2381 32.1072C27.2961 31.3102 27.394 29.5876 27.4181 28.9402C27.4573 27.8861 27.4668 27.494 27.4693 26.8356C27.471 26.3905 27.4704 26.2379 27.464 25.5025C27.4611 25.1635 27.4418 24.1669 27.4325 23.8748C27.418 23.423 27.3323 21.4512 27.3092 21.0426L27.2856 20.6226L27.1059 20.594C26.6896 20.5278 26.2387 20.4974 25.703 20.4993C25.2757 20.5008 25.0318 20.5226 24.7276 20.5865C24.362 20.6631 24.2531 20.7079 24.0584 20.8619C23.8895 20.9955 23.8293 21.0695 23.745 21.2466C23.6243 21.5005 23.6222 21.5691 23.6802 23.377C23.7846 26.635 23.8055 27.603 23.7977 28.8341C23.7953 29.2072 23.7921 29.69 23.7907 29.9068C23.7855 30.7061 23.7541 31.8249 23.71 32.782C23.6564 33.9453 23.5592 35.3982 23.4651 36.4462C23.4455 36.6648 23.4329 36.6508 23.6314 36.6328C23.8186 36.6158 25.0932 36.48 25.5113 36.4326C25.7352 36.4071 26.1137 36.3681 26.3523 36.3458C26.5909 36.3236 26.7906 36.3028 26.7959 36.2996C26.8012 36.2964 26.8412 36.0139 26.8847 35.6718ZM22.4475 35.6697C22.5509 34.3525 22.6209 33.1468 22.672 31.7995C22.6839 31.4867 22.7171 30.0202 22.7186 29.7439C22.7192 29.6215 22.7204 29.4311 22.7212 29.3207C22.7273 28.4967 22.726 27.6318 22.7181 27.2828C22.7178 27.2681 22.6564 27.2635 22.5526 27.2704C22.19 27.2946 21.7271 27.2941 21.0447 27.2688C20.8748 27.2625 20.6755 27.2551 20.6018 27.2525C20.5281 27.2499 20.3715 27.2419 20.2539 27.2347C19.9689 27.2173 19.7939 27.2253 19.6298 27.2634C19.5153 27.29 19.479 27.3067 19.3997 27.3699C19.2422 27.4953 19.1804 27.6188 19.1411 27.8862C19.1155 28.0608 19.112 28.3495 19.1313 28.7149C19.1502 29.0747 19.1622 29.4583 19.163 29.7342C19.1634 29.8756 19.1659 30.1429 19.1686 30.3282C19.1743 30.7319 19.1691 31.6299 19.1574 32.2507C19.1528 32.4981 19.1488 32.8109 19.1485 32.9458C19.1481 33.2543 19.1243 33.9393 19.0886 34.6672C19.0402 35.6568 19.0411 35.8029 19.0973 36.0414C19.1912 36.44 19.4698 36.6704 19.9121 36.715C20.3999 36.7643 22.2839 36.7641 22.3508 36.7148C22.3593 36.7085 22.4029 36.2382 22.4475 35.6697Z" fill="black"/>
<path d="M37.8592 41.284C37.8141 41.2791 37.6784 41.3483 37.5788 41.4271C37.5387 41.4588 37.4569 41.5037 37.3969 41.527C37.337 41.5502 37.2691 41.5837 37.2461 41.6015C37.2231 41.6193 37.1676 41.6431 37.1228 41.6545C37.0779 41.6659 37.0261 41.6871 37.0076 41.7017C36.9891 41.7163 36.94 41.7353 36.8983 41.7438C36.8566 41.7524 36.8096 41.7697 36.7937 41.7823C36.7778 41.7948 36.7327 41.8118 36.6935 41.8199C36.6542 41.8281 36.5845 41.8447 36.5386 41.8569C36.4926 41.869 36.4171 41.8886 36.3708 41.9004C36.3246 41.9122 36.2659 41.9274 36.2404 41.9342C36.215 41.9411 36.1783 41.9491 36.1591 41.9521C36.1398 41.9551 36.1083 41.9598 36.089 41.9628C36.0696 41.9657 36.0198 41.9762 35.9783 41.9861C35.9367 41.9961 35.8256 42.0142 35.7315 42.0265C35.6373 42.0388 35.558 42.0507 35.555 42.053C35.5521 42.0553 35.4988 42.0595 35.4367 42.0621C35.3744 42.0648 35.311 42.0703 35.2957 42.0744C35.1647 42.1092 29.0713 42.1194 28.49 42.0912C28.3666 42.0852 28.1937 42.0774 28.1057 42.0739C28.0178 42.0703 27.8445 42.0628 27.7206 42.0572C27.5967 42.0516 27.3929 42.0434 27.2676 42.0388C27.1423 42.0344 26.9081 42.0252 26.7473 42.0183C26.5865 42.0115 26.2907 42.0012 26.09 41.9954C25.8894 41.9896 25.6165 41.9811 25.4836 41.9766C25.3507 41.972 25.1639 41.9666 25.0684 41.9647C24.8938 41.9612 24.8302 41.9593 24.4667 41.9467C24.205 41.9377 24.0765 41.9345 23.8723 41.9321C23.7787 41.931 23.6707 41.9285 23.6323 41.9265C23.5938 41.9246 23.4694 41.9218 23.3558 41.9202C23.2423 41.9187 23.0272 41.9144 22.8778 41.9106C22.6112 41.904 22.2476 41.8969 21.921 41.8919C21.8303 41.8905 21.4806 41.883 21.1439 41.8752C20.8072 41.8673 20.4574 41.8599 20.3666 41.8586C20.2088 41.8563 19.6313 41.8469 19.1039 41.8381C18.8723 41.8341 18.6407 41.8299 17.9815 41.8175C17.2575 41.8039 17.0332 41.8008 16.6369 41.7996C16.193 41.7982 15.5065 41.8142 15.4913 41.8263C15.4734 41.8404 14.7998 41.8315 14.6003 41.8146C14.2689 41.7864 13.8963 41.7382 13.7175 41.7005C13.6264 41.6812 13.5036 41.6558 13.4448 41.6441C13.2116 41.5976 12.865 41.4387 12.657 41.2831C12.2792 41.0002 12.0149 40.5819 11.901 40.0862C11.8814 40.0008 11.8531 39.85 11.8381 39.751C11.8232 39.652 11.8005 39.5626 11.7878 39.5523C11.7308 39.506 11.7566 39.1147 11.8936 37.9471C12.0339 36.7516 12.0856 35.7779 12.071 34.6049C12.0538 33.2298 11.8903 31.4373 11.6467 29.9547C11.3603 28.2117 10.8641 26.44 10.2827 25.0842C10.2163 24.9295 10.0356 24.509 9.88124 24.1497C9.49579 23.2532 9.37802 22.936 9.28666 22.5482C9.15922 22.0072 9.14935 21.6167 9.25343 21.2349C9.30147 21.0586 9.38305 20.8718 9.56223 20.5276C9.62716 20.4029 9.74176 20.1581 9.81685 19.9836C10.006 19.5439 10.6206 18.2534 10.8617 17.7895C11.7233 16.1317 12.4667 14.9462 13.6567 13.3322C14.2433 12.5366 14.7296 11.9295 15.355 11.2118C15.7613 10.7456 15.9533 10.548 16.2425 10.2983C16.3889 10.172 16.5296 10.0377 16.5753 9.98073C16.6212 9.92357 16.7476 9.803 16.8761 9.69387C17.1592 9.45354 17.3572 9.33617 17.6849 9.21454C18.2445 9.0069 18.7313 8.94288 20.2939 8.87142C20.7134 8.85226 21.8246 8.83634 22.7144 8.83689C24.0037 8.83764 24.4583 8.81792 25.8382 8.70163C26.7394 8.62563 27.235 8.58916 27.6103 8.57111C29.6154 8.47457 35.8751 8.63671 36.9822 9.13386C37.3161 9.28379 37.4333 9.34689 37.5189 9.42286C37.5622 9.46131 37.6504 9.53561 37.7152 9.58801C38.1314 9.92496 38.3186 10.1102 38.5925 10.4561C39.0402 11.0215 39.3308 11.5912 39.6032 12.4376C39.6858 12.694 39.734 12.8811 39.8356 13.3395C39.8713 13.5002 39.9237 13.733 39.9522 13.8567C40.0394 14.2356 40.362 15.8714 40.3961 16.1075C40.4017 16.1466 40.4115 16.2045 40.4177 16.236C40.424 16.2676 40.4547 16.4528 40.4859 16.6475C40.5171 16.8421 40.5522 17.0587 40.5639 17.1286C40.5981 17.3325 40.6087 17.4026 40.6343 17.5937C40.6476 17.6928 40.666 17.8279 40.6752 17.8938C40.6843 17.9597 40.6955 18.0406 40.6999 18.0736C40.7044 18.1066 40.7156 18.1875 40.7248 18.2533C40.7821 18.661 40.8157 18.9346 40.8671 19.4149C40.899 19.7126 40.931 20.0097 40.9381 20.0751C40.975 20.413 41.0882 21.8869 41.1077 22.2824C41.1161 22.4525 41.1262 22.649 41.1301 22.719C41.1531 23.1289 41.1613 23.3414 41.1703 23.7619C41.1759 24.0195 41.1821 24.2711 41.1842 24.3209C41.1946 24.5654 41.1999 24.7998 41.197 24.882C41.1952 24.9321 41.1943 25.0982 41.195 25.251C41.1961 25.5207 41.1876 26.1284 41.1807 26.2687C41.1789 26.3067 41.1748 26.4156 41.1718 26.5106C41.1567 26.9775 41.1487 27.1343 41.1104 27.7053C41.0878 28.0439 41.0645 28.3964 41.0587 28.4885C41.0458 28.692 40.9595 29.6295 40.9109 30.0939C40.8503 30.6731 40.5718 32.898 40.4522 33.7587C40.3895 34.2104 40.314 34.7537 40.2844 34.9662C40.255 35.1787 40.1988 35.5672 40.1597 35.8295C40.1205 36.0917 40.0679 36.4533 40.0429 36.633C40.0178 36.8126 39.9759 37.0795 39.9498 37.226C39.9237 37.3726 39.9019 37.4984 39.9015 37.5056C39.8941 37.6152 39.6387 38.6945 39.6043 38.7613C39.599 38.7715 39.5772 38.8311 39.556 38.8937C39.4527 39.1972 39.4298 39.2559 39.3602 39.3947C39.3404 39.4343 39.3252 39.4766 39.3266 39.4887C39.3279 39.5009 39.3178 39.5197 39.3041 39.5306C39.2903 39.5414 39.273 39.5751 39.2656 39.6054C39.2581 39.6356 39.2415 39.6687 39.2287 39.6788C39.2159 39.689 39.1993 39.722 39.1919 39.7523C39.1845 39.7825 39.1661 39.8169 39.1512 39.8287C39.1363 39.8405 39.1148 39.8723 39.1035 39.8994C39.0794 39.9568 39.0117 40.0662 38.9492 40.1487C38.9249 40.1806 38.8851 40.2412 38.8605 40.2833C38.8359 40.3254 38.7977 40.3743 38.7754 40.3919C38.7531 40.4096 38.7073 40.4643 38.6736 40.5136C38.6354 40.5696 38.5479 40.6599 38.4402 40.7545C38.3455 40.8378 38.225 40.9537 38.1724 41.0122C38.0041 41.1997 37.9015 41.2887 37.8592 41.284ZM37.7271 40.0945C37.7823 40.0392 37.7919 40.021 37.7753 40.0031C37.7639 39.9908 37.7584 39.9776 37.7633 39.9737C37.823 39.9259 38.0218 39.6849 38.1125 39.5506C38.5782 38.86 38.8098 38.0272 39.0951 36.0178C39.1195 35.8457 39.1887 35.3518 39.2487 34.9202C39.3087 34.4886 39.4025 33.8163 39.4571 33.4261C39.6242 32.2304 39.9365 29.6529 39.9944 28.9907C40.1138 27.6237 40.1679 26.1187 40.1495 24.6691C40.1206 22.3788 40.0112 20.8552 39.7193 18.6721C39.4504 16.6627 39.4426 16.6149 39.1352 15.0901C38.8623 13.7366 38.7888 13.4071 38.6649 12.9804C38.5457 12.5698 38.4722 12.3576 38.3533 12.0817C37.987 11.2309 37.5056 10.671 36.7788 10.2508C35.9155 9.75158 29.6848 9.54045 28.0477 9.6107C27.424 9.63746 27.1807 9.65451 26.1143 9.74619C24.644 9.87262 24.2369 9.88977 22.7589 9.88756C21.8261 9.88618 20.5378 9.90812 20.1634 9.93176C19.6522 9.96408 18.8916 10.0221 18.7234 10.0417C18.0081 10.1249 17.5522 10.3855 17.2267 10.8972C16.8497 11.4897 16.7348 12.2653 16.748 14.131C16.7612 16.0207 16.6807 16.93 16.4443 17.5588C16.3311 17.8602 16.1626 18.1622 15.9664 18.4154C15.6662 18.8029 15.1854 19.1596 14.6249 19.411C14.1825 19.6094 13.7134 19.7501 12.3469 20.0943C11.8936 20.2084 11.5197 20.3372 11.2514 20.4713C11.0387 20.5776 10.7277 20.8179 10.5996 20.9749C10.2576 21.394 10.2001 21.9361 10.4253 22.6173C10.5178 22.8969 10.7181 23.3935 10.8979 23.7887C11.1699 24.3868 11.5131 25.2375 11.7075 25.7962C11.9195 26.4051 12.2327 27.4932 12.3906 28.1688C12.7058 29.5183 12.9671 31.3498 13.0569 32.8389C13.1808 34.8955 13.1536 36.2045 12.9503 37.9722C12.8377 38.9513 12.8274 39.0886 12.8455 39.3546C12.8721 39.7454 12.9458 40.0437 13.0474 40.1721C13.0768 40.2092 13.0835 40.2299 13.0695 40.2409C13.0352 40.2681 13.0509 40.2937 13.1592 40.3872C13.3725 40.5711 13.513 40.6271 13.9888 40.718C14.3355 40.7841 14.4766 40.7966 14.5075 40.7636C14.5164 40.7541 14.65 40.7593 14.8045 40.7751C14.9647 40.7914 15.2308 40.7982 15.4234 40.7908C15.6092 40.7837 15.8741 40.7736 16.0121 40.7685C16.415 40.7534 17.5429 40.7569 18.1404 40.7751C18.4438 40.7843 19.0446 40.797 19.4757 40.8032C19.9068 40.8094 20.7073 40.8239 21.2547 40.8353C21.8021 40.8468 22.6075 40.8621 23.0447 40.8694C23.8206 40.8823 25.9571 40.9461 26.8382 40.9827C27.3148 41.0026 28.1683 41.027 28.6092 41.0335C28.7601 41.0357 29.0625 41.0412 29.2813 41.0456C29.9887 41.0599 35.3536 41.0363 35.8028 40.9472C35.944 40.9193 36.1373 40.8719 36.2324 40.842C36.3569 40.8027 36.4099 40.7941 36.4213 40.811C36.4332 40.8287 36.4526 40.824 36.4994 40.7921C36.5418 40.7633 36.5808 40.7518 36.6217 40.7563C36.6669 40.7613 36.6966 40.7512 36.7415 40.7156C36.7761 40.6882 36.8234 40.667 36.8542 40.6652C36.8878 40.6632 36.9505 40.6335 37.0252 40.5841C37.09 40.5411 37.1814 40.4906 37.2283 40.4717C37.3181 40.4356 37.5967 40.2248 37.7271 40.0945ZM14.9393 17.9772C15.3363 17.5947 15.5525 17.0803 15.6345 16.3223C15.652 16.1611 15.6682 15.8047 15.6706 15.5304C15.6773 14.7448 15.6793 14.3468 15.6782 14.0132C15.6763 13.4368 15.6831 12.9467 15.6963 12.7077C15.7035 12.5768 15.7044 12.4691 15.6982 12.4684C15.6545 12.4636 14.7401 13.6281 14.2289 14.3395C13.8836 14.82 13.1892 15.8768 12.8685 16.4099C12.2773 17.3925 11.8036 18.2708 11.3766 19.1762L11.3064 19.3249L11.4714 19.2675C11.7715 19.1632 12.1812 19.0467 12.7452 18.9053C13.4824 18.7205 13.8553 18.6031 14.2155 18.4422C14.5646 18.2864 14.7261 18.1825 14.9393 17.9772Z" fill="black"/>

</svg>
