<svg width="50" height="50" viewBox="0 0 50 50" fill="none" xmlns="http://www.w3.org/2000/svg">
<path d="M19.4278 29.7989C20.6171 31.9455 21.1576 33.0733 21.0868 33.5138C23.439 33.0098 27.43 33.2431 29.4118 33.7941C29.6242 33.2735 30.0914 31.9519 31.3656 29.5091C32.3 27.1463 37.1846 23.9425 37.5669 19.297C37.7936 16.542 33.9942 8.92426 26.6036 6.80175C19.2131 4.67925 13.8507 10.7303 12.5765 16.5772C11.3022 22.4241 17.9412 27.1158 19.4278 29.7989Z" fill="#FDB913"/>
<path d="M20.0366 33.5138C22.6507 33.0098 27.0861 33.2431 29.2886 33.7941C29.5128 33.8363 30.0437 34.0531 30.3731 34.5822C30.4566 34.7163 30.5027 35.0478 30.5147 35.5019C30.5364 36.3241 30.4465 37.5481 30.2657 38.7285C30.0539 40.1116 29.7171 41.4349 29.2886 41.9824C28.852 42.5402 27.9243 42.9327 26.9456 43.1944C25.6911 43.5299 24.3526 43.6507 23.8569 43.6296C23.3719 43.6091 22.2295 43.3888 21.1693 42.9812C20.3002 42.647 19.688 42.4812 18.9825 41.844C18.5258 41.4316 18.1732 40.9541 18.0736 40.455C17.9121 39.6449 17.8136 38.5901 17.7659 37.5707C17.6905 35.9587 18.4305 34.4351 18.5615 34.108C18.7733 33.5789 19.628 33.5925 20.0366 33.5138Z" fill="#7B78CC"/>
<path d="M30.098 24.1474C31.7811 23.8461 32.168 22.5952 32.3523 21.7786" stroke="white" stroke-width="2" stroke-linecap="round"/>
<path d="M26.2324 11.868C22.6428 11.0436 16.5683 14.5582 19.5135 21.2402" stroke="white" stroke-width="2" stroke-linecap="round"/>
<path d="M22.1984 34.4924C20.7827 36.8998 21.6086 40.4852 22.1984 41.977" stroke="white" stroke-width="2" stroke-linecap="round"/>
<path d="M21.0871 33.5137C21.1579 33.0732 21.0021 31.6555 19.8129 29.509C18.3263 26.8258 12.932 22.3806 14.2063 16.5337C15.4805 10.6868 21.172 6.40173 28.5626 8.52423C35.9531 10.6467 37.7938 16.542 37.5671 19.2969C37.1849 23.9424 32.3003 27.1462 31.3659 29.509C30.0916 31.9519 29.6244 33.2734 29.4121 33.794M21.0871 33.5137C23.4393 33.0098 27.4303 33.2431 29.4121 33.794M21.0871 33.5137C20.7195 33.5925 19.9504 33.5788 19.7598 34.1079C19.642 34.435 19.5954 35.9586 19.6632 37.5707M29.4121 33.794C29.6138 33.8363 30.0915 34.053 30.3879 34.5821C30.4631 34.7162 30.5045 35.0478 30.5153 35.5018M19.6632 37.5707C21.3593 37.3551 29.0877 36.6438 30.5153 35.5018M19.6632 37.5707C19.7061 38.5901 19.7948 39.6449 19.9401 40.4549M30.5153 35.5018C30.5348 36.3241 30.454 37.548 30.2913 38.7285M19.9401 40.4549C20.0297 40.954 20.1408 41.3602 20.276 41.6079C20.592 42.187 21.3243 42.647 22.1063 42.9811C23.0603 43.3887 24.0882 43.609 24.5246 43.6296C24.9707 43.6506 26.175 43.5299 27.3039 43.1944C28.1845 42.9326 29.0192 42.5402 29.4121 41.9823C29.7977 41.4348 30.1007 40.1115 30.2913 38.7285M19.9401 40.4549C22.1843 40.6317 27.534 40.3003 30.2913 38.7285" stroke="black"/>
</svg>
